<svg xmlns="http://www.w3.org/2000/svg" xmlns:xlink="http://www.w3.org/1999/xlink" version="1.1" x="0px" y="0px" viewBox="0 0 90 112.5" enable-background="new 0 0 90 90" xml:space="preserve"><path d="M77.6,9.9L61,9.9l0-2.3C61,4.5,58.5,2,55.4,2H35c-3.1,0-5.6,2.5-5.6,5.6l0,2.3l-16.6,0c-2.2,0-3.9,1.7-3.9,3.9l0,9.9H13  l2.8,57.5c0,4.9,4,8.8,8.8,8.8h41.1c4.9,0,8.9-4,8.9-8.8l2.8-57.5h4.1l0-9.9C81.5,11.6,79.8,9.9,77.6,9.9z M31.8,7.6  c0-1.8,1.4-3.2,3.2-3.2h20.4c1.8,0,3.2,1.4,3.2,3.2v2.3l-26.8,0V7.6z M72.1,81.2c0,3.5-2.9,6.4-6.4,6.4H24.6c-3.5,0-6.4-2.9-6.4-6.4  l-2.8-57.5h59.5L72.1,81.2z M79,21.2l-67.6,0v-7.4c0-0.8,0.5-1.4,1.4-1.4l64.9,0c0.8,0,1.4,0.6,1.4,1.4V21.2z M28.5,78.4h4.8  c1.4,0,2.6-1.2,2.6-2.6l0-32.1c0-1.4-1.2-2.6-2.6-2.6h-4.8c-1.4,0-2.6,1.2-2.6,2.6l0,32.1C25.9,77.2,27,78.4,28.5,78.4z M28.3,43.4  l5.3,0l0,32.5h-5.3V43.4z M42.8,78.4h4.8c1.4,0,2.6-1.2,2.6-2.6l0-32.1c0-1.4-1.2-2.6-2.6-2.6h-4.8c-1.4,0-2.6,1.2-2.6,2.6l0,32.1  C40.2,77.2,41.3,78.4,42.8,78.4z M42.6,43.4l5.3,0l0,32.5h-5.3V43.4z M57.1,78.4h4.8c1.4,0,2.6-1.2,2.6-2.6l0-32.1  c0-1.4-1.2-2.6-2.6-2.6h-4.8c-1.4,0-2.6,1.2-2.6,2.6l0,32.1C54.5,77.2,55.6,78.4,57.1,78.4z M56.9,43.4l5.3,0l0,32.5h-5.3V43.4z"/><text x="0" y="105" fill="#000000" font-size="5px" font-weight="bold" font-family="'Helvetica Neue', Helvetica, Arial-Unicode, Arial, Sans-serif">Created by Y E J I N</text><text x="0" y="110" fill="#000000" font-size="5px" font-weight="bold" font-family="'Helvetica Neue', Helvetica, Arial-Unicode, Arial, Sans-serif">from the Noun Project</text></svg>